<svg width="155" height="44" viewBox="0 0 155 44" fill="none" xmlns="http://www.w3.org/2000/svg">
<rect x="77.4275" width="77.5724" height="44" fill="#333333"/>
<path d="M24.1 32L24.075 21.525L18.925 30.15H17.125L11.975 21.725V32H8.175V14.5H11.525L18.075 25.375L24.525 14.5H27.875L27.9 32H24.1ZM40.5973 32.3C38.7806 32.3 37.1389 31.9083 35.6723 31.125C34.2223 30.3417 33.0806 29.2667 32.2473 27.9C31.4306 26.5167 31.0223 24.9667 31.0223 23.25C31.0223 21.5333 31.4306 19.9917 32.2473 18.625C33.0806 17.2417 34.2223 16.1583 35.6723 15.375C37.1389 14.5917 38.7806 14.2 40.5973 14.2C42.4139 14.2 44.0473 14.5917 45.4973 15.375C46.9473 16.1583 48.0889 17.2417 48.9223 18.625C49.7556 19.9917 50.1723 21.5333 50.1723 23.25C50.1723 24.9667 49.7556 26.5167 48.9223 27.9C48.0889 29.2667 46.9473 30.3417 45.4973 31.125C44.0473 31.9083 42.4139 32.3 40.5973 32.3ZM40.5973 28.85C41.6306 28.85 42.5639 28.6167 43.3973 28.15C44.2306 27.6667 44.8806 27 45.3473 26.15C45.8306 25.3 46.0723 24.3333 46.0723 23.25C46.0723 22.1667 45.8306 21.2 45.3473 20.35C44.8806 19.5 44.2306 18.8417 43.3973 18.375C42.5639 17.8917 41.6306 17.65 40.5973 17.65C39.5639 17.65 38.6306 17.8917 37.7973 18.375C36.9639 18.8417 36.3056 19.5 35.8223 20.35C35.3556 21.2 35.1223 22.1667 35.1223 23.25C35.1223 24.3333 35.3556 25.3 35.8223 26.15C36.3056 27 36.9639 27.6667 37.7973 28.15C38.6306 28.6167 39.5639 28.85 40.5973 28.85ZM53.2922 14.5H57.3172V25.9L65.6672 14.5H69.4672V32H65.4672V20.625L57.1172 32H53.2922V14.5ZM61.3672 13.375C58.1672 13.375 56.5505 12.1 56.5172 9.55H59.2922C59.3255 10.7667 60.0172 11.375 61.3672 11.375C62.0339 11.375 62.5422 11.225 62.8922 10.925C63.2422 10.6083 63.4255 10.15 63.4422 9.55H66.2172C66.2005 10.8 65.7922 11.75 64.9922 12.4C64.1922 13.05 62.9839 13.375 61.3672 13.375Z" fill="#333333"/>
<path d="M100.316 17.8H94.7156V32H90.7156V17.8H85.1406V14.5H100.316V17.8ZM110.889 32.3C109.106 32.3 107.489 31.9167 106.039 31.15C104.606 30.3667 103.473 29.2917 102.639 27.925C101.823 26.5417 101.414 24.9833 101.414 23.25C101.414 21.5167 101.823 19.9667 102.639 18.6C103.473 17.2167 104.606 16.1417 106.039 15.375C107.489 14.5917 109.114 14.2 110.914 14.2C112.431 14.2 113.798 14.4667 115.014 15C116.248 15.5333 117.281 16.3 118.114 17.3L115.514 19.7C114.331 18.3333 112.864 17.65 111.114 17.65C110.031 17.65 109.064 17.8917 108.214 18.375C107.364 18.8417 106.698 19.5 106.214 20.35C105.748 21.2 105.514 22.1667 105.514 23.25C105.514 24.3333 105.748 25.3 106.214 26.15C106.698 27 107.364 27.6667 108.214 28.15C109.064 28.6167 110.031 28.85 111.114 28.85C112.864 28.85 114.331 28.1583 115.514 26.775L118.114 29.175C117.281 30.1917 116.248 30.9667 115.014 31.5C113.781 32.0333 112.406 32.3 110.889 32.3ZM136.287 24.95H133.737V32H129.762V24.95H127.162L123.237 32H118.562L123.812 22.85L118.887 14.5H123.162L127.087 21.575H129.762V14.5H133.737V21.575H136.337L140.287 14.5H144.562L139.662 22.85L144.887 32H140.212L136.287 24.95Z" fill="white"/>
</svg>
