<svg width="155" height="44" viewBox="0 0 155 44" fill="none" xmlns="http://www.w3.org/2000/svg">
<rect x="77.4275" width="77.5724" height="44" fill="#333333"/>
<path d="M24.1 32L24.075 21.525L18.925 30.15H17.125L11.975 21.725V32H8.175V14.5H11.525L18.075 25.375L24.525 14.5H27.875L27.9 32H24.1ZM40.5973 32.3C38.7806 32.3 37.1389 31.9083 35.6723 31.125C34.2223 30.3417 33.0806 29.2667 32.2473 27.9C31.4306 26.5167 31.0223 24.9667 31.0223 23.25C31.0223 21.5333 31.4306 19.9917 32.2473 18.625C33.0806 17.2417 34.2223 16.1583 35.6723 15.375C37.1389 14.5917 38.7806 14.2 40.5973 14.2C42.4139 14.2 44.0473 14.5917 45.4973 15.375C46.9473 16.1583 48.0889 17.2417 48.9223 18.625C49.7556 19.9917 50.1723 21.5333 50.1723 23.25C50.1723 24.9667 49.7556 26.5167 48.9223 27.9C48.0889 29.2667 46.9473 30.3417 45.4973 31.125C44.0473 31.9083 42.4139 32.3 40.5973 32.3ZM40.5973 28.85C41.6306 28.85 42.5639 28.6167 43.3973 28.15C44.2306 27.6667 44.8806 27 45.3473 26.15C45.8306 25.3 46.0723 24.3333 46.0723 23.25C46.0723 22.1667 45.8306 21.2 45.3473 20.35C44.8806 19.5 44.2306 18.8417 43.3973 18.375C42.5639 17.8917 41.6306 17.65 40.5973 17.65C39.5639 17.65 38.6306 17.8917 37.7973 18.375C36.9639 18.8417 36.3056 19.5 35.8223 20.35C35.3556 21.2 35.1223 22.1667 35.1223 23.25C35.1223 24.3333 35.3556 25.3 35.8223 26.15C36.3056 27 36.9639 27.6667 37.7973 28.15C38.6306 28.6167 39.5639 28.85 40.5973 28.85ZM66.8422 28.75V32H53.2922V14.5H66.5172V17.75H57.3172V21.55H65.4422V24.7H57.3172V28.75H66.8422ZM57.3922 12.95C56.8922 12.95 56.4755 12.7917 56.1422 12.475C55.8089 12.1417 55.6422 11.725 55.6422 11.225C55.6422 10.725 55.8089 10.3167 56.1422 10C56.4755 9.66667 56.8922 9.5 57.3922 9.5C57.8922 9.5 58.3005 9.66667 58.6172 10C58.9505 10.3167 59.1172 10.725 59.1172 11.225C59.1172 11.725 58.9505 12.1417 58.6172 12.475C58.3005 12.7917 57.8922 12.95 57.3922 12.95ZM62.4422 12.95C61.9422 12.95 61.5255 12.7917 61.1922 12.475C60.8755 12.1417 60.7172 11.725 60.7172 11.225C60.7172 10.725 60.8755 10.3167 61.1922 10C61.5255 9.66667 61.9422 9.5 62.4422 9.5C62.9422 9.5 63.3589 9.66667 63.6922 10C64.0255 10.3167 64.1922 10.725 64.1922 11.225C64.1922 11.725 64.0255 12.1417 63.6922 12.475C63.3589 12.7917 62.9422 12.95 62.4422 12.95Z" fill="#333333"/>
<path d="M100.55 17.8H94.95V32H90.95V17.8H85.375V14.5H100.55V17.8ZM111.124 32.3C109.34 32.3 107.724 31.9167 106.274 31.15C104.84 30.3667 103.707 29.2917 102.874 27.925C102.057 26.5417 101.649 24.9833 101.649 23.25C101.649 21.5167 102.057 19.9667 102.874 18.6C103.707 17.2167 104.84 16.1417 106.274 15.375C107.724 14.5917 109.349 14.2 111.149 14.2C112.665 14.2 114.032 14.4667 115.249 15C116.482 15.5333 117.515 16.3 118.349 17.3L115.749 19.7C114.565 18.3333 113.099 17.65 111.349 17.65C110.265 17.65 109.299 17.8917 108.449 18.375C107.599 18.8417 106.932 19.5 106.449 20.35C105.982 21.2 105.749 22.1667 105.749 23.25C105.749 24.3333 105.982 25.3 106.449 26.15C106.932 27 107.599 27.6667 108.449 28.15C109.299 28.6167 110.265 28.85 111.349 28.85C113.099 28.85 114.565 28.1583 115.749 26.775L118.349 29.175C117.515 30.1917 116.482 30.9667 115.249 31.5C114.015 32.0333 112.64 32.3 111.124 32.3ZM136.522 24.95H133.972V32H129.997V24.95H127.397L123.472 32H118.797L124.047 22.85L119.122 14.5H123.397L127.322 21.575H129.997V14.5H133.972V21.575H136.572L140.522 14.5H144.797L139.897 22.85L145.122 32H140.447L136.522 24.95Z" fill="white"/>
</svg>
