<svg width="78" height="44" viewBox="0 0 78 44" fill="none" xmlns="http://www.w3.org/2000/svg">
<rect x="0.42749" width="77.5724" height="44" fill="#333333"/>
<path d="M23.55 17.8H17.95V32H13.95V17.8H8.375V14.5H23.55V17.8ZM34.1238 32.3C32.3405 32.3 30.7238 31.9167 29.2738 31.15C27.8405 30.3667 26.7072 29.2917 25.8738 27.925C25.0572 26.5417 24.6488 24.9833 24.6488 23.25C24.6488 21.5167 25.0572 19.9667 25.8738 18.6C26.7072 17.2167 27.8405 16.1417 29.2738 15.375C30.7238 14.5917 32.3488 14.2 34.1488 14.2C35.6655 14.2 37.0322 14.4667 38.2488 15C39.4822 15.5333 40.5155 16.3 41.3488 17.3L38.7488 19.7C37.5655 18.3333 36.0988 17.65 34.3488 17.65C33.2655 17.65 32.2988 17.8917 31.4488 18.375C30.5988 18.8417 29.9322 19.5 29.4488 20.35C28.9822 21.2 28.7488 22.1667 28.7488 23.25C28.7488 24.3333 28.9822 25.3 29.4488 26.15C29.9322 27 30.5988 27.6667 31.4488 28.15C32.2988 28.6167 33.2655 28.85 34.3488 28.85C36.0988 28.85 37.5655 28.1583 38.7488 26.775L41.3488 29.175C40.5155 30.1917 39.4822 30.9667 38.2488 31.5C37.0155 32.0333 35.6405 32.3 34.1238 32.3ZM59.5217 24.95H56.9717V32H52.9967V24.95H50.3967L46.4717 32H41.7967L47.0467 22.85L42.1217 14.5H46.3967L50.3217 21.575H52.9967V14.5H56.9717V21.575H59.5717L63.5217 14.5H67.7967L62.8967 22.85L68.1217 32H63.4467L59.5217 24.95Z" fill="white"/>
</svg>
